<mxfile host="app.diagrams.net" modified="2020-08-08T15:44:08.991Z" agent="5.0 (X11; Linux x86_64) AppleWebKit/537.36 (KHTML, like Gecko) Chrome/84.0.4147.105 Safari/537.36" etag="8ylnLgdDYNaeVjaDA8FM" version="13.6.1" type="github">
  <diagram id="aWsGCWjbVJpznEYCHB2O" name="Page-1">
    <mxGraphModel dx="725" dy="751" grid="1" gridSize="10" guides="1" tooltips="1" connect="1" arrows="1" fold="1" page="1" pageScale="1" pageWidth="827" pageHeight="1169" background="none" math="0" shadow="0">
      <root>
        <mxCell id="0" />
        <mxCell id="1" parent="0" />
        <mxCell id="94Ujw2wD_Renqaecw5Hu-94" style="edgeStyle=orthogonalEdgeStyle;rounded=0;orthogonalLoop=1;jettySize=auto;html=1;entryX=1;entryY=0.5;entryDx=0;entryDy=0;" edge="1" parent="1" source="94Ujw2wD_Renqaecw5Hu-81" target="94Ujw2wD_Renqaecw5Hu-6">
          <mxGeometry relative="1" as="geometry" />
        </mxCell>
        <mxCell id="94Ujw2wD_Renqaecw5Hu-5" value="itrade_items" style="shape=table;startSize=30;container=1;collapsible=1;childLayout=tableLayout;fixedRows=1;rowLines=0;fontStyle=1;align=center;resizeLast=1;" vertex="1" parent="1">
          <mxGeometry x="30" y="30" width="180" height="240" as="geometry" />
        </mxCell>
        <mxCell id="94Ujw2wD_Renqaecw5Hu-6" value="" style="shape=partialRectangle;collapsible=0;dropTarget=0;pointerEvents=0;fillColor=none;top=0;left=0;bottom=1;right=0;points=[[0,0.5],[1,0.5]];portConstraint=eastwest;" vertex="1" parent="94Ujw2wD_Renqaecw5Hu-5">
          <mxGeometry y="30" width="180" height="30" as="geometry" />
        </mxCell>
        <mxCell id="94Ujw2wD_Renqaecw5Hu-7" value="PK" style="shape=partialRectangle;connectable=0;fillColor=none;top=0;left=0;bottom=0;right=0;fontStyle=1;overflow=hidden;" vertex="1" parent="94Ujw2wD_Renqaecw5Hu-6">
          <mxGeometry width="30" height="30" as="geometry" />
        </mxCell>
        <mxCell id="94Ujw2wD_Renqaecw5Hu-8" value="trade_item_id" style="shape=partialRectangle;connectable=0;fillColor=none;top=0;left=0;bottom=0;right=0;align=left;spacingLeft=6;fontStyle=5;overflow=hidden;" vertex="1" parent="94Ujw2wD_Renqaecw5Hu-6">
          <mxGeometry x="30" width="150" height="30" as="geometry" />
        </mxCell>
        <mxCell id="94Ujw2wD_Renqaecw5Hu-54" value="" style="shape=partialRectangle;collapsible=0;dropTarget=0;pointerEvents=0;fillColor=none;top=0;left=0;bottom=0;right=0;points=[[0,0.5],[1,0.5]];portConstraint=eastwest;" vertex="1" parent="94Ujw2wD_Renqaecw5Hu-5">
          <mxGeometry y="60" width="180" height="30" as="geometry" />
        </mxCell>
        <mxCell id="94Ujw2wD_Renqaecw5Hu-55" value="" style="shape=partialRectangle;connectable=0;fillColor=none;top=0;left=0;bottom=0;right=0;editable=1;overflow=hidden;" vertex="1" parent="94Ujw2wD_Renqaecw5Hu-54">
          <mxGeometry width="30" height="30" as="geometry" />
        </mxCell>
        <mxCell id="94Ujw2wD_Renqaecw5Hu-56" value="item_description" style="shape=partialRectangle;connectable=0;fillColor=none;top=0;left=0;bottom=0;right=0;align=left;spacingLeft=6;overflow=hidden;" vertex="1" parent="94Ujw2wD_Renqaecw5Hu-54">
          <mxGeometry x="30" width="150" height="30" as="geometry" />
        </mxCell>
        <mxCell id="94Ujw2wD_Renqaecw5Hu-9" value="" style="shape=partialRectangle;collapsible=0;dropTarget=0;pointerEvents=0;fillColor=none;top=0;left=0;bottom=0;right=0;points=[[0,0.5],[1,0.5]];portConstraint=eastwest;" vertex="1" parent="94Ujw2wD_Renqaecw5Hu-5">
          <mxGeometry y="90" width="180" height="30" as="geometry" />
        </mxCell>
        <mxCell id="94Ujw2wD_Renqaecw5Hu-10" value="" style="shape=partialRectangle;connectable=0;fillColor=none;top=0;left=0;bottom=0;right=0;editable=1;overflow=hidden;" vertex="1" parent="94Ujw2wD_Renqaecw5Hu-9">
          <mxGeometry width="30" height="30" as="geometry" />
        </mxCell>
        <mxCell id="94Ujw2wD_Renqaecw5Hu-11" value="opening_price" style="shape=partialRectangle;connectable=0;fillColor=none;top=0;left=0;bottom=0;right=0;align=left;spacingLeft=6;overflow=hidden;" vertex="1" parent="94Ujw2wD_Renqaecw5Hu-9">
          <mxGeometry x="30" width="150" height="30" as="geometry" />
        </mxCell>
        <mxCell id="94Ujw2wD_Renqaecw5Hu-12" value="" style="shape=partialRectangle;collapsible=0;dropTarget=0;pointerEvents=0;fillColor=none;top=0;left=0;bottom=0;right=0;points=[[0,0.5],[1,0.5]];portConstraint=eastwest;" vertex="1" parent="94Ujw2wD_Renqaecw5Hu-5">
          <mxGeometry y="120" width="180" height="30" as="geometry" />
        </mxCell>
        <mxCell id="94Ujw2wD_Renqaecw5Hu-13" value="" style="shape=partialRectangle;connectable=0;fillColor=none;top=0;left=0;bottom=0;right=0;editable=1;overflow=hidden;" vertex="1" parent="94Ujw2wD_Renqaecw5Hu-12">
          <mxGeometry width="30" height="30" as="geometry" />
        </mxCell>
        <mxCell id="94Ujw2wD_Renqaecw5Hu-14" value="closing_price" style="shape=partialRectangle;connectable=0;fillColor=none;top=0;left=0;bottom=0;right=0;align=left;spacingLeft=6;overflow=hidden;" vertex="1" parent="94Ujw2wD_Renqaecw5Hu-12">
          <mxGeometry x="30" width="150" height="30" as="geometry" />
        </mxCell>
        <mxCell id="94Ujw2wD_Renqaecw5Hu-15" value="" style="shape=partialRectangle;collapsible=0;dropTarget=0;pointerEvents=0;fillColor=none;top=0;left=0;bottom=0;right=0;points=[[0,0.5],[1,0.5]];portConstraint=eastwest;" vertex="1" parent="94Ujw2wD_Renqaecw5Hu-5">
          <mxGeometry y="150" width="180" height="40" as="geometry" />
        </mxCell>
        <mxCell id="94Ujw2wD_Renqaecw5Hu-16" value="" style="shape=partialRectangle;connectable=0;fillColor=none;top=0;left=0;bottom=0;right=0;editable=1;overflow=hidden;" vertex="1" parent="94Ujw2wD_Renqaecw5Hu-15">
          <mxGeometry width="30" height="40" as="geometry" />
        </mxCell>
        <mxCell id="94Ujw2wD_Renqaecw5Hu-17" value="high_price" style="shape=partialRectangle;connectable=0;fillColor=none;top=0;left=0;bottom=0;right=0;align=left;spacingLeft=6;overflow=hidden;" vertex="1" parent="94Ujw2wD_Renqaecw5Hu-15">
          <mxGeometry x="30" width="150" height="40" as="geometry" />
        </mxCell>
        <mxCell id="94Ujw2wD_Renqaecw5Hu-35" value="" style="shape=partialRectangle;collapsible=0;dropTarget=0;pointerEvents=0;fillColor=none;top=0;left=0;bottom=0;right=0;points=[[0,0.5],[1,0.5]];portConstraint=eastwest;" vertex="1" parent="94Ujw2wD_Renqaecw5Hu-5">
          <mxGeometry y="190" width="180" height="40" as="geometry" />
        </mxCell>
        <mxCell id="94Ujw2wD_Renqaecw5Hu-36" value="" style="shape=partialRectangle;connectable=0;fillColor=none;top=0;left=0;bottom=0;right=0;editable=1;overflow=hidden;" vertex="1" parent="94Ujw2wD_Renqaecw5Hu-35">
          <mxGeometry width="30" height="40" as="geometry" />
        </mxCell>
        <mxCell id="94Ujw2wD_Renqaecw5Hu-37" value="low_price" style="shape=partialRectangle;connectable=0;fillColor=none;top=0;left=0;bottom=0;right=0;align=left;spacingLeft=6;overflow=hidden;" vertex="1" parent="94Ujw2wD_Renqaecw5Hu-35">
          <mxGeometry x="30" width="150" height="40" as="geometry" />
        </mxCell>
        <mxCell id="94Ujw2wD_Renqaecw5Hu-57" value="trade_notes" style="shape=table;startSize=30;container=1;collapsible=1;childLayout=tableLayout;fixedRows=1;rowLines=0;fontStyle=1;align=center;resizeLast=1;" vertex="1" parent="1">
          <mxGeometry x="520" y="20" width="180" height="130" as="geometry" />
        </mxCell>
        <mxCell id="94Ujw2wD_Renqaecw5Hu-58" value="" style="shape=partialRectangle;collapsible=0;dropTarget=0;pointerEvents=0;fillColor=none;top=0;left=0;bottom=1;right=0;points=[[0,0.5],[1,0.5]];portConstraint=eastwest;" vertex="1" parent="94Ujw2wD_Renqaecw5Hu-57">
          <mxGeometry y="30" width="180" height="30" as="geometry" />
        </mxCell>
        <mxCell id="94Ujw2wD_Renqaecw5Hu-59" value="PK" style="shape=partialRectangle;connectable=0;fillColor=none;top=0;left=0;bottom=0;right=0;fontStyle=1;overflow=hidden;" vertex="1" parent="94Ujw2wD_Renqaecw5Hu-58">
          <mxGeometry width="30" height="30" as="geometry" />
        </mxCell>
        <mxCell id="94Ujw2wD_Renqaecw5Hu-60" value="trade_note_id" style="shape=partialRectangle;connectable=0;fillColor=none;top=0;left=0;bottom=0;right=0;align=left;spacingLeft=6;fontStyle=5;overflow=hidden;" vertex="1" parent="94Ujw2wD_Renqaecw5Hu-58">
          <mxGeometry x="30" width="150" height="30" as="geometry" />
        </mxCell>
        <mxCell id="94Ujw2wD_Renqaecw5Hu-64" value="" style="shape=partialRectangle;collapsible=0;dropTarget=0;pointerEvents=0;fillColor=none;top=0;left=0;bottom=0;right=0;points=[[0,0.5],[1,0.5]];portConstraint=eastwest;" vertex="1" parent="94Ujw2wD_Renqaecw5Hu-57">
          <mxGeometry y="60" width="180" height="30" as="geometry" />
        </mxCell>
        <mxCell id="94Ujw2wD_Renqaecw5Hu-65" value="" style="shape=partialRectangle;connectable=0;fillColor=none;top=0;left=0;bottom=0;right=0;editable=1;overflow=hidden;" vertex="1" parent="94Ujw2wD_Renqaecw5Hu-64">
          <mxGeometry width="30" height="30" as="geometry" />
        </mxCell>
        <mxCell id="94Ujw2wD_Renqaecw5Hu-66" value="raiting" style="shape=partialRectangle;connectable=0;fillColor=none;top=0;left=0;bottom=0;right=0;align=left;spacingLeft=6;overflow=hidden;" vertex="1" parent="94Ujw2wD_Renqaecw5Hu-64">
          <mxGeometry x="30" width="150" height="30" as="geometry" />
        </mxCell>
        <mxCell id="94Ujw2wD_Renqaecw5Hu-67" value="" style="shape=partialRectangle;collapsible=0;dropTarget=0;pointerEvents=0;fillColor=none;top=0;left=0;bottom=0;right=0;points=[[0,0.5],[1,0.5]];portConstraint=eastwest;" vertex="1" parent="94Ujw2wD_Renqaecw5Hu-57">
          <mxGeometry y="90" width="180" height="30" as="geometry" />
        </mxCell>
        <mxCell id="94Ujw2wD_Renqaecw5Hu-68" value="" style="shape=partialRectangle;connectable=0;fillColor=none;top=0;left=0;bottom=0;right=0;editable=1;overflow=hidden;" vertex="1" parent="94Ujw2wD_Renqaecw5Hu-67">
          <mxGeometry width="30" height="30" as="geometry" />
        </mxCell>
        <mxCell id="94Ujw2wD_Renqaecw5Hu-69" value="note" style="shape=partialRectangle;connectable=0;fillColor=none;top=0;left=0;bottom=0;right=0;align=left;spacingLeft=6;overflow=hidden;" vertex="1" parent="94Ujw2wD_Renqaecw5Hu-67">
          <mxGeometry x="30" width="150" height="30" as="geometry" />
        </mxCell>
        <mxCell id="94Ujw2wD_Renqaecw5Hu-116" style="edgeStyle=orthogonalEdgeStyle;rounded=0;orthogonalLoop=1;jettySize=auto;html=1;entryX=0;entryY=0.5;entryDx=0;entryDy=0;" edge="1" parent="1" source="94Ujw2wD_Renqaecw5Hu-113" target="94Ujw2wD_Renqaecw5Hu-58">
          <mxGeometry relative="1" as="geometry" />
        </mxCell>
        <mxCell id="94Ujw2wD_Renqaecw5Hu-95" value="trade_days" style="shape=table;startSize=30;container=1;collapsible=1;childLayout=tableLayout;fixedRows=1;rowLines=0;fontStyle=1;align=center;resizeLast=1;" vertex="1" parent="1">
          <mxGeometry x="520" y="180" width="180" height="100" as="geometry" />
        </mxCell>
        <mxCell id="94Ujw2wD_Renqaecw5Hu-96" value="" style="shape=partialRectangle;collapsible=0;dropTarget=0;pointerEvents=0;fillColor=none;top=0;left=0;bottom=1;right=0;points=[[0,0.5],[1,0.5]];portConstraint=eastwest;" vertex="1" parent="94Ujw2wD_Renqaecw5Hu-95">
          <mxGeometry y="30" width="180" height="30" as="geometry" />
        </mxCell>
        <mxCell id="94Ujw2wD_Renqaecw5Hu-97" value="PK" style="shape=partialRectangle;connectable=0;fillColor=none;top=0;left=0;bottom=0;right=0;fontStyle=1;overflow=hidden;" vertex="1" parent="94Ujw2wD_Renqaecw5Hu-96">
          <mxGeometry width="30" height="30" as="geometry" />
        </mxCell>
        <mxCell id="94Ujw2wD_Renqaecw5Hu-98" value="trade_day_id" style="shape=partialRectangle;connectable=0;fillColor=none;top=0;left=0;bottom=0;right=0;align=left;spacingLeft=6;fontStyle=5;overflow=hidden;" vertex="1" parent="94Ujw2wD_Renqaecw5Hu-96">
          <mxGeometry x="30" width="150" height="30" as="geometry" />
        </mxCell>
        <mxCell id="94Ujw2wD_Renqaecw5Hu-102" value="" style="shape=partialRectangle;collapsible=0;dropTarget=0;pointerEvents=0;fillColor=none;top=0;left=0;bottom=0;right=0;points=[[0,0.5],[1,0.5]];portConstraint=eastwest;" vertex="1" parent="94Ujw2wD_Renqaecw5Hu-95">
          <mxGeometry y="60" width="180" height="30" as="geometry" />
        </mxCell>
        <mxCell id="94Ujw2wD_Renqaecw5Hu-103" value="" style="shape=partialRectangle;connectable=0;fillColor=none;top=0;left=0;bottom=0;right=0;editable=1;overflow=hidden;" vertex="1" parent="94Ujw2wD_Renqaecw5Hu-102">
          <mxGeometry width="30" height="30" as="geometry" />
        </mxCell>
        <mxCell id="94Ujw2wD_Renqaecw5Hu-104" value="date" style="shape=partialRectangle;connectable=0;fillColor=none;top=0;left=0;bottom=0;right=0;align=left;spacingLeft=6;overflow=hidden;" vertex="1" parent="94Ujw2wD_Renqaecw5Hu-102">
          <mxGeometry x="30" width="150" height="30" as="geometry" />
        </mxCell>
        <mxCell id="94Ujw2wD_Renqaecw5Hu-120" style="edgeStyle=orthogonalEdgeStyle;rounded=0;orthogonalLoop=1;jettySize=auto;html=1;entryX=0;entryY=0.5;entryDx=0;entryDy=0;" edge="1" parent="1" source="94Ujw2wD_Renqaecw5Hu-117" target="94Ujw2wD_Renqaecw5Hu-96">
          <mxGeometry relative="1" as="geometry" />
        </mxCell>
        <mxCell id="94Ujw2wD_Renqaecw5Hu-77" value="trades" style="shape=table;startSize=30;container=1;collapsible=1;childLayout=tableLayout;fixedRows=1;rowLines=0;fontStyle=1;align=center;resizeLast=1;" vertex="1" parent="1">
          <mxGeometry x="260" y="30" width="180" height="290" as="geometry" />
        </mxCell>
        <mxCell id="94Ujw2wD_Renqaecw5Hu-78" value="" style="shape=partialRectangle;collapsible=0;dropTarget=0;pointerEvents=0;fillColor=none;top=0;left=0;bottom=1;right=0;points=[[0,0.5],[1,0.5]];portConstraint=eastwest;" vertex="1" parent="94Ujw2wD_Renqaecw5Hu-77">
          <mxGeometry y="30" width="180" height="30" as="geometry" />
        </mxCell>
        <mxCell id="94Ujw2wD_Renqaecw5Hu-79" value="PK" style="shape=partialRectangle;connectable=0;fillColor=none;top=0;left=0;bottom=0;right=0;fontStyle=1;overflow=hidden;" vertex="1" parent="94Ujw2wD_Renqaecw5Hu-78">
          <mxGeometry width="30" height="30" as="geometry" />
        </mxCell>
        <mxCell id="94Ujw2wD_Renqaecw5Hu-80" value="trade_id" style="shape=partialRectangle;connectable=0;fillColor=none;top=0;left=0;bottom=0;right=0;align=left;spacingLeft=6;fontStyle=5;overflow=hidden;" vertex="1" parent="94Ujw2wD_Renqaecw5Hu-78">
          <mxGeometry x="30" width="150" height="30" as="geometry" />
        </mxCell>
        <mxCell id="94Ujw2wD_Renqaecw5Hu-81" value="" style="shape=partialRectangle;collapsible=0;dropTarget=0;pointerEvents=0;fillColor=none;top=0;left=0;bottom=0;right=0;points=[[0,0.5],[1,0.5]];portConstraint=eastwest;" vertex="1" parent="94Ujw2wD_Renqaecw5Hu-77">
          <mxGeometry y="60" width="180" height="30" as="geometry" />
        </mxCell>
        <mxCell id="94Ujw2wD_Renqaecw5Hu-82" value="FK" style="shape=partialRectangle;connectable=0;fillColor=none;top=0;left=0;bottom=0;right=0;editable=1;overflow=hidden;" vertex="1" parent="94Ujw2wD_Renqaecw5Hu-81">
          <mxGeometry width="30" height="30" as="geometry" />
        </mxCell>
        <mxCell id="94Ujw2wD_Renqaecw5Hu-83" value="trade_item_id" style="shape=partialRectangle;connectable=0;fillColor=none;top=0;left=0;bottom=0;right=0;align=left;spacingLeft=6;overflow=hidden;" vertex="1" parent="94Ujw2wD_Renqaecw5Hu-81">
          <mxGeometry x="30" width="150" height="30" as="geometry" />
        </mxCell>
        <mxCell id="94Ujw2wD_Renqaecw5Hu-113" value="" style="shape=partialRectangle;collapsible=0;dropTarget=0;pointerEvents=0;fillColor=none;top=0;left=0;bottom=0;right=0;points=[[0,0.5],[1,0.5]];portConstraint=eastwest;" vertex="1" parent="94Ujw2wD_Renqaecw5Hu-77">
          <mxGeometry y="90" width="180" height="30" as="geometry" />
        </mxCell>
        <mxCell id="94Ujw2wD_Renqaecw5Hu-114" value="FK" style="shape=partialRectangle;connectable=0;fillColor=none;top=0;left=0;bottom=0;right=0;editable=1;overflow=hidden;" vertex="1" parent="94Ujw2wD_Renqaecw5Hu-113">
          <mxGeometry width="30" height="30" as="geometry" />
        </mxCell>
        <mxCell id="94Ujw2wD_Renqaecw5Hu-115" value="trade_note_id" style="shape=partialRectangle;connectable=0;fillColor=none;top=0;left=0;bottom=0;right=0;align=left;spacingLeft=6;overflow=hidden;" vertex="1" parent="94Ujw2wD_Renqaecw5Hu-113">
          <mxGeometry x="30" width="150" height="30" as="geometry" />
        </mxCell>
        <mxCell id="94Ujw2wD_Renqaecw5Hu-117" value="" style="shape=partialRectangle;collapsible=0;dropTarget=0;pointerEvents=0;fillColor=none;top=0;left=0;bottom=0;right=0;points=[[0,0.5],[1,0.5]];portConstraint=eastwest;" vertex="1" parent="94Ujw2wD_Renqaecw5Hu-77">
          <mxGeometry y="120" width="180" height="30" as="geometry" />
        </mxCell>
        <mxCell id="94Ujw2wD_Renqaecw5Hu-118" value="FK" style="shape=partialRectangle;connectable=0;fillColor=none;top=0;left=0;bottom=0;right=0;editable=1;overflow=hidden;" vertex="1" parent="94Ujw2wD_Renqaecw5Hu-117">
          <mxGeometry width="30" height="30" as="geometry" />
        </mxCell>
        <mxCell id="94Ujw2wD_Renqaecw5Hu-119" value="trade_day_id" style="shape=partialRectangle;connectable=0;fillColor=none;top=0;left=0;bottom=0;right=0;align=left;spacingLeft=6;overflow=hidden;" vertex="1" parent="94Ujw2wD_Renqaecw5Hu-117">
          <mxGeometry x="30" width="150" height="30" as="geometry" />
        </mxCell>
        <mxCell id="94Ujw2wD_Renqaecw5Hu-137" value="" style="shape=partialRectangle;collapsible=0;dropTarget=0;pointerEvents=0;fillColor=none;top=0;left=0;bottom=0;right=0;points=[[0,0.5],[1,0.5]];portConstraint=eastwest;" vertex="1" parent="94Ujw2wD_Renqaecw5Hu-77">
          <mxGeometry y="150" width="180" height="30" as="geometry" />
        </mxCell>
        <mxCell id="94Ujw2wD_Renqaecw5Hu-138" value="FK" style="shape=partialRectangle;connectable=0;fillColor=none;top=0;left=0;bottom=0;right=0;editable=1;overflow=hidden;" vertex="1" parent="94Ujw2wD_Renqaecw5Hu-137">
          <mxGeometry width="30" height="30" as="geometry" />
        </mxCell>
        <mxCell id="94Ujw2wD_Renqaecw5Hu-139" value="user_id" style="shape=partialRectangle;connectable=0;fillColor=none;top=0;left=0;bottom=0;right=0;align=left;spacingLeft=6;overflow=hidden;" vertex="1" parent="94Ujw2wD_Renqaecw5Hu-137">
          <mxGeometry x="30" width="150" height="30" as="geometry" />
        </mxCell>
        <mxCell id="94Ujw2wD_Renqaecw5Hu-84" value="" style="shape=partialRectangle;collapsible=0;dropTarget=0;pointerEvents=0;fillColor=none;top=0;left=0;bottom=0;right=0;points=[[0,0.5],[1,0.5]];portConstraint=eastwest;" vertex="1" parent="94Ujw2wD_Renqaecw5Hu-77">
          <mxGeometry y="180" width="180" height="30" as="geometry" />
        </mxCell>
        <mxCell id="94Ujw2wD_Renqaecw5Hu-85" value="" style="shape=partialRectangle;connectable=0;fillColor=none;top=0;left=0;bottom=0;right=0;editable=1;overflow=hidden;" vertex="1" parent="94Ujw2wD_Renqaecw5Hu-84">
          <mxGeometry width="30" height="30" as="geometry" />
        </mxCell>
        <mxCell id="94Ujw2wD_Renqaecw5Hu-86" value="money_in" style="shape=partialRectangle;connectable=0;fillColor=none;top=0;left=0;bottom=0;right=0;align=left;spacingLeft=6;overflow=hidden;" vertex="1" parent="94Ujw2wD_Renqaecw5Hu-84">
          <mxGeometry x="30" width="150" height="30" as="geometry" />
        </mxCell>
        <mxCell id="94Ujw2wD_Renqaecw5Hu-87" value="" style="shape=partialRectangle;collapsible=0;dropTarget=0;pointerEvents=0;fillColor=none;top=0;left=0;bottom=0;right=0;points=[[0,0.5],[1,0.5]];portConstraint=eastwest;" vertex="1" parent="94Ujw2wD_Renqaecw5Hu-77">
          <mxGeometry y="210" width="180" height="30" as="geometry" />
        </mxCell>
        <mxCell id="94Ujw2wD_Renqaecw5Hu-88" value="" style="shape=partialRectangle;connectable=0;fillColor=none;top=0;left=0;bottom=0;right=0;editable=1;overflow=hidden;" vertex="1" parent="94Ujw2wD_Renqaecw5Hu-87">
          <mxGeometry width="30" height="30" as="geometry" />
        </mxCell>
        <mxCell id="94Ujw2wD_Renqaecw5Hu-89" value="money_out" style="shape=partialRectangle;connectable=0;fillColor=none;top=0;left=0;bottom=0;right=0;align=left;spacingLeft=6;overflow=hidden;" vertex="1" parent="94Ujw2wD_Renqaecw5Hu-87">
          <mxGeometry x="30" width="150" height="30" as="geometry" />
        </mxCell>
        <mxCell id="94Ujw2wD_Renqaecw5Hu-90" value="" style="shape=partialRectangle;collapsible=0;dropTarget=0;pointerEvents=0;fillColor=none;top=0;left=0;bottom=0;right=0;points=[[0,0.5],[1,0.5]];portConstraint=eastwest;" vertex="1" parent="94Ujw2wD_Renqaecw5Hu-77">
          <mxGeometry y="240" width="180" height="40" as="geometry" />
        </mxCell>
        <mxCell id="94Ujw2wD_Renqaecw5Hu-91" value="" style="shape=partialRectangle;connectable=0;fillColor=none;top=0;left=0;bottom=0;right=0;editable=1;overflow=hidden;" vertex="1" parent="94Ujw2wD_Renqaecw5Hu-90">
          <mxGeometry width="30" height="40" as="geometry" />
        </mxCell>
        <mxCell id="94Ujw2wD_Renqaecw5Hu-92" value="win_loss_ratio" style="shape=partialRectangle;connectable=0;fillColor=none;top=0;left=0;bottom=0;right=0;align=left;spacingLeft=6;overflow=hidden;" vertex="1" parent="94Ujw2wD_Renqaecw5Hu-90">
          <mxGeometry x="30" width="150" height="40" as="geometry" />
        </mxCell>
        <mxCell id="94Ujw2wD_Renqaecw5Hu-121" value="users" style="shape=table;startSize=30;container=1;collapsible=1;childLayout=tableLayout;fixedRows=1;rowLines=0;fontStyle=1;align=center;resizeLast=1;" vertex="1" parent="1">
          <mxGeometry x="40" y="340" width="180" height="220" as="geometry" />
        </mxCell>
        <mxCell id="94Ujw2wD_Renqaecw5Hu-122" value="" style="shape=partialRectangle;collapsible=0;dropTarget=0;pointerEvents=0;fillColor=none;top=0;left=0;bottom=1;right=0;points=[[0,0.5],[1,0.5]];portConstraint=eastwest;" vertex="1" parent="94Ujw2wD_Renqaecw5Hu-121">
          <mxGeometry y="30" width="180" height="30" as="geometry" />
        </mxCell>
        <mxCell id="94Ujw2wD_Renqaecw5Hu-123" value="PK" style="shape=partialRectangle;connectable=0;fillColor=none;top=0;left=0;bottom=0;right=0;fontStyle=1;overflow=hidden;" vertex="1" parent="94Ujw2wD_Renqaecw5Hu-122">
          <mxGeometry width="30" height="30" as="geometry" />
        </mxCell>
        <mxCell id="94Ujw2wD_Renqaecw5Hu-124" value="user_id" style="shape=partialRectangle;connectable=0;fillColor=none;top=0;left=0;bottom=0;right=0;align=left;spacingLeft=6;fontStyle=5;overflow=hidden;" vertex="1" parent="94Ujw2wD_Renqaecw5Hu-122">
          <mxGeometry x="30" width="150" height="30" as="geometry" />
        </mxCell>
        <mxCell id="94Ujw2wD_Renqaecw5Hu-125" value="" style="shape=partialRectangle;collapsible=0;dropTarget=0;pointerEvents=0;fillColor=none;top=0;left=0;bottom=0;right=0;points=[[0,0.5],[1,0.5]];portConstraint=eastwest;" vertex="1" parent="94Ujw2wD_Renqaecw5Hu-121">
          <mxGeometry y="60" width="180" height="30" as="geometry" />
        </mxCell>
        <mxCell id="94Ujw2wD_Renqaecw5Hu-126" value="" style="shape=partialRectangle;connectable=0;fillColor=none;top=0;left=0;bottom=0;right=0;editable=1;overflow=hidden;" vertex="1" parent="94Ujw2wD_Renqaecw5Hu-125">
          <mxGeometry width="30" height="30" as="geometry" />
        </mxCell>
        <mxCell id="94Ujw2wD_Renqaecw5Hu-127" value="username" style="shape=partialRectangle;connectable=0;fillColor=none;top=0;left=0;bottom=0;right=0;align=left;spacingLeft=6;overflow=hidden;" vertex="1" parent="94Ujw2wD_Renqaecw5Hu-125">
          <mxGeometry x="30" width="150" height="30" as="geometry" />
        </mxCell>
        <mxCell id="94Ujw2wD_Renqaecw5Hu-128" value="" style="shape=partialRectangle;collapsible=0;dropTarget=0;pointerEvents=0;fillColor=none;top=0;left=0;bottom=0;right=0;points=[[0,0.5],[1,0.5]];portConstraint=eastwest;" vertex="1" parent="94Ujw2wD_Renqaecw5Hu-121">
          <mxGeometry y="90" width="180" height="30" as="geometry" />
        </mxCell>
        <mxCell id="94Ujw2wD_Renqaecw5Hu-129" value="" style="shape=partialRectangle;connectable=0;fillColor=none;top=0;left=0;bottom=0;right=0;editable=1;overflow=hidden;" vertex="1" parent="94Ujw2wD_Renqaecw5Hu-128">
          <mxGeometry width="30" height="30" as="geometry" />
        </mxCell>
        <mxCell id="94Ujw2wD_Renqaecw5Hu-130" value="password" style="shape=partialRectangle;connectable=0;fillColor=none;top=0;left=0;bottom=0;right=0;align=left;spacingLeft=6;overflow=hidden;" vertex="1" parent="94Ujw2wD_Renqaecw5Hu-128">
          <mxGeometry x="30" width="150" height="30" as="geometry" />
        </mxCell>
        <mxCell id="94Ujw2wD_Renqaecw5Hu-131" value="" style="shape=partialRectangle;collapsible=0;dropTarget=0;pointerEvents=0;fillColor=none;top=0;left=0;bottom=0;right=0;points=[[0,0.5],[1,0.5]];portConstraint=eastwest;" vertex="1" parent="94Ujw2wD_Renqaecw5Hu-121">
          <mxGeometry y="120" width="180" height="30" as="geometry" />
        </mxCell>
        <mxCell id="94Ujw2wD_Renqaecw5Hu-132" value="" style="shape=partialRectangle;connectable=0;fillColor=none;top=0;left=0;bottom=0;right=0;editable=1;overflow=hidden;" vertex="1" parent="94Ujw2wD_Renqaecw5Hu-131">
          <mxGeometry width="30" height="30" as="geometry" />
        </mxCell>
        <mxCell id="94Ujw2wD_Renqaecw5Hu-133" value="email" style="shape=partialRectangle;connectable=0;fillColor=none;top=0;left=0;bottom=0;right=0;align=left;spacingLeft=6;overflow=hidden;" vertex="1" parent="94Ujw2wD_Renqaecw5Hu-131">
          <mxGeometry x="30" width="150" height="30" as="geometry" />
        </mxCell>
        <mxCell id="94Ujw2wD_Renqaecw5Hu-134" value="" style="shape=partialRectangle;collapsible=0;dropTarget=0;pointerEvents=0;fillColor=none;top=0;left=0;bottom=0;right=0;points=[[0,0.5],[1,0.5]];portConstraint=eastwest;" vertex="1" parent="94Ujw2wD_Renqaecw5Hu-121">
          <mxGeometry y="150" width="180" height="30" as="geometry" />
        </mxCell>
        <mxCell id="94Ujw2wD_Renqaecw5Hu-135" value="" style="shape=partialRectangle;connectable=0;fillColor=none;top=0;left=0;bottom=0;right=0;editable=1;overflow=hidden;" vertex="1" parent="94Ujw2wD_Renqaecw5Hu-134">
          <mxGeometry width="30" height="30" as="geometry" />
        </mxCell>
        <mxCell id="94Ujw2wD_Renqaecw5Hu-136" value="active" style="shape=partialRectangle;connectable=0;fillColor=none;top=0;left=0;bottom=0;right=0;align=left;spacingLeft=6;overflow=hidden;" vertex="1" parent="94Ujw2wD_Renqaecw5Hu-134">
          <mxGeometry x="30" width="150" height="30" as="geometry" />
        </mxCell>
        <mxCell id="94Ujw2wD_Renqaecw5Hu-141" value="" style="shape=partialRectangle;collapsible=0;dropTarget=0;pointerEvents=0;fillColor=none;top=0;left=0;bottom=0;right=0;points=[[0,0.5],[1,0.5]];portConstraint=eastwest;" vertex="1" parent="94Ujw2wD_Renqaecw5Hu-121">
          <mxGeometry y="180" width="180" height="30" as="geometry" />
        </mxCell>
        <mxCell id="94Ujw2wD_Renqaecw5Hu-142" value="" style="shape=partialRectangle;connectable=0;fillColor=none;top=0;left=0;bottom=0;right=0;editable=1;overflow=hidden;" vertex="1" parent="94Ujw2wD_Renqaecw5Hu-141">
          <mxGeometry width="30" height="30" as="geometry" />
        </mxCell>
        <mxCell id="94Ujw2wD_Renqaecw5Hu-143" value="role " style="shape=partialRectangle;connectable=0;fillColor=none;top=0;left=0;bottom=0;right=0;align=left;spacingLeft=6;overflow=hidden;" vertex="1" parent="94Ujw2wD_Renqaecw5Hu-141">
          <mxGeometry x="30" width="150" height="30" as="geometry" />
        </mxCell>
        <mxCell id="94Ujw2wD_Renqaecw5Hu-140" style="edgeStyle=orthogonalEdgeStyle;rounded=0;orthogonalLoop=1;jettySize=auto;html=1;entryX=1;entryY=0.5;entryDx=0;entryDy=0;" edge="1" parent="1" source="94Ujw2wD_Renqaecw5Hu-137" target="94Ujw2wD_Renqaecw5Hu-122">
          <mxGeometry relative="1" as="geometry" />
        </mxCell>
      </root>
    </mxGraphModel>
  </diagram>
</mxfile>
